<svg xmlns="http://www.w3.org/2000/svg" pointer-events="none" class="leaflet-zoom-animated" width="1452" height="839" viewBox="-121 -70 1452 839" style="transform: translate3d(-121px, -70px, 0px);"><g><path class="leaflet-interactive" stroke="#201920" stroke-opacity="1" stroke-width="2" stroke-linecap="round" stroke-linejoin="round" fill="none" d="M362 307L362 303L361 304L359 300L363 298L362 295L365 292L366 293L369 290L371 290L371 288L374 289L376 287L377 290L383 290L388 282L393 283L396 280L397 281L397 279L403 277L406 274L413 272L413 265L416 262L415 261L418 260L418 256L415 249L415 243L411 241L411 239L424 235L432 237L433 236L430 233L430 231L436 213L443 216L452 217L456 215L458 213L456 202L460 198L462 199L465 197L467 193L466 192L468 190L474 190L476 197L481 199L483 203L489 203L490 206L493 205L493 207L496 209L498 216L500 216L501 219L501 222L499 224L500 227L498 230L499 237L500 236L503 238L504 237L510 239L520 239L531 247L536 247L535 250L537 250L539 257L544 264L550 263L569 266L585 266L592 271L593 270L598 273L608 274L609 276L613 277L616 274L633 267L643 268L654 265L662 257L666 256L669 253L665 247L666 242L669 238L682 242L686 240L691 234L698 234L704 229L703 228L708 223L712 223L713 220L717 221L719 219L724 218L726 220L733 219L732 214L722 204L717 203L713 207L704 205L701 208L698 205L698 203L700 201L707 181L715 185L722 180L728 178L729 175L727 175L727 173L732 166L734 158L737 155L739 155L740 152L739 147L737 145L734 146L734 144L742 136L743 137L759 133L763 133L767 136L768 135L770 138L773 139L779 139L779 142L781 142L782 146L785 148L784 151L786 152L785 153L788 158L787 159L789 160L789 166L792 169L793 176L795 176L794 181L797 185L804 184L804 186L810 186L810 188L812 188L816 193L820 193L818 196L821 200L819 202L823 208L834 207L839 202L841 203L848 199L855 199L852 200L851 205L853 207L847 213L848 214L845 221L846 224L839 237L836 238L829 235L827 237L828 238L822 240L825 250L825 256L823 262L818 264L819 267L816 264L816 262L813 261L812 266L810 268L809 267L806 272L798 272L801 277L799 279L792 278L790 276L791 275L789 275L790 274L787 275L782 284L775 287L769 292M402 374L399 371L399 369L402 366L404 370L406 368L406 364L401 358L401 354L404 351L398 347L396 339L391 340L384 337L384 335L381 336L379 333L380 330L377 327L375 327L375 325L367 323L369 321L371 322M628 464L626 464L627 461L625 461L627 457L625 455L620 456L616 452L614 452L612 456L607 456L604 459L602 457L600 457L597 460L594 457L592 457L591 460L586 459L586 471L582 470L582 466L574 468L574 466L572 466L571 463L567 463L567 457L569 455L564 453L564 449L562 447L564 445L558 445L554 447L553 446L555 444L553 442L555 438L554 437L562 429L561 428L563 424L563 416L560 413L560 415L558 413L558 409L554 407L554 405L552 407L553 408L551 408L552 411L549 413L542 408L538 408L535 409L535 411L532 413L527 414L521 420L517 421L509 421L509 415L505 415L504 410L499 411L490 408L486 412L484 417L482 415L483 410L481 409L479 411L474 412L470 412L465 409L463 411L461 409L461 411L457 407L454 408L453 404L450 405L445 400L445 398L441 400L436 395L434 395L434 393L433 394L432 392L430 392L429 389L424 388L422 392L408 382L405 383L402 380L402 374M637 468L632 467L628 464M640 597L639 588M648 513L651 517L652 522M656 546L654 554M668 618L676 615M698 587L703 581M722 557L725 548M726 515L726 524M734 490L729 498M749 466L743 474M754 451L756 441" id="国界"/><path class="leaflet-interactive" stroke="#201920" stroke-opacity="1" stroke-width="2" stroke-linecap="butt" stroke-linejoin="round" stroke-dasharray="4,4" stroke-dashoffset="4" fill="none" d="M371 322L373 320L371 318L371 310L369 308L366 307L364 309L362 307" id="争议"/><path class="leaflet-interactive" stroke="gray" stroke-opacity="1" stroke-width="1" stroke-linecap="round" stroke-linejoin="round" stroke-dasharray="8,4,4,4" fill="none" d="M682 462L682 462M687 459L685 459L684 462L689 462L689 460L687 459" id="港澳"/><path class="leaflet-interactive" stroke="#4190da" stroke-opacity="1" stroke-width="1" stroke-linecap="round" stroke-linejoin="round" fill="none" d="M686 461L686 459L684 460L683 457L682 462L680 464L679 463L679 465L676 464L674 466L671 465L669 467L659 469L655 472L655 474L658 477L656 479L652 479L650 473L652 469L650 467L648 469L646 469L646 467L637 468M656 471L656 471M656 471L656 473L656 471M682 462L682 462M686 461L686 461M686 461L686 461M686 461L686 461M733 422L730 423L732 423L733 426L730 427L731 430L729 432L733 432L731 434L728 433L728 435L726 435L727 436L726 437L726 435L724 439L723 438L724 439L722 442L719 441L719 443L713 450L709 450L705 456L699 456L697 458L695 456L692 459L690 457L690 459L689 460L689 458L687 460L689 460L686 461M733 422L733 422M748 400L746 404L747 407L744 410L743 409L742 412L741 411L733 424L732 423L734 421L733 422M746 326L744 328L740 328L741 331L740 330L739 333L736 334L736 332L736 334L727 345L737 353L741 363L741 367L746 371L745 372L749 374L749 376L744 374L742 376L744 378M744 378L750 383L749 384L751 386L747 384L742 387L745 388L749 393L751 393L748 395L750 396L749 400M746 326L746 326M746 326L746 326M752 300L749 304L745 306L742 305L747 302L747 300L746 301L743 298L745 298L745 296L752 289L751 286L750 287L748 285L743 284L738 289L738 291L731 294L728 297L728 299L722 303L722 305L719 304L719 302L717 302L715 306L715 310L717 310L717 312L724 313L727 316L728 315L728 317L725 318L725 320L728 323L732 323L732 321L736 318L735 317L739 316L745 318L745 320L751 319L755 321L752 326L746 326M746 326L746 326M748 400L748 400M748 400L748 400M748 400L748 400M749 400L748 400M749 400L749 400M751 392L751 392M751 392L751 392M751 392L751 392M752 392L751 392M751 392L749 390L751 390L752 392M752 392L752 392M752 390L753 389L752 390M752 390L752 390M752 300L752 300M769 292L767 296L761 296L752 300M753 385L753 385M753 385L753 385M755 384L755 384M644 467L644 467M646 472L646 472M649 482L649 482M649 586L650 584L653 585L652 584L649 586M650 497L642 493L642 487L647 482L659 479L662 483L659 486L657 492L651 495L650 497M653 582L654 581L653 582M656 475L656 475M657 471L657 471M657 582L657 582M657 580L658 579L657 580M658 472L658 470L658 472M658 478L658 478M658 580L658 580M658 473L658 473M663 516L663 516M665 506L666 505L665 506M665 576L665 576M665 511L665 511M665 570L665 570M666 584L666 584M666 582L666 582M666 511L666 511M666 510L666 510M666 581L667 582L666 581M666 513L666 513M666 575L667 576L666 575M666 510L666 510M667 583L667 583M667 510L667 510M667 513L668 512L667 513M667 511L668 510L667 511M667 514L667 514M669 580L669 580M669 512L669 512M669 614L669 614M671 574L671 574M671 574L671 574M671 614L671 614M671 508L671 508M671 517L671 517M671 506L672 507L671 506M671 573L672 574L671 573M671 613L671 613M672 573L672 573M672 600L672 600M672 507L672 507M672 508L672 508M673 512L672 513L673 512M673 467L673 467M673 599L673 599M673 515L674 514L673 515M673 511L674 510L673 511M673 568L673 568M673 600L674 599L673 600M673 598L674 599L673 598M674 574L674 574M674 597L674 597M674 604L674 604M674 467L674 467M674 600L674 600M674 602L674 602M674 511L675 512L674 511M674 604L674 604M675 466L674 467L675 466M675 512L675 512M675 509L675 509M676 467L675 466L676 467M676 573L676 573M676 467L676 467M676 508L676 508M676 582L676 582M676 568L676 568M676 568L676 568M677 605L677 605M677 577L677 577M677 485L677 485M677 567L677 567M677 465L677 465M678 464L678 464M678 465L678 465M679 464L679 464M679 594L679 594M679 580L679 580M679 580L680 579L679 580M682 462L682 462M682 562L682 562M682 589L682 589M682 573L683 572L682 573M683 571L683 571M683 464L683 464M683 518L683 518M683 464L683 464M683 464L683 464M683 464L683 464M683 584L684 583L683 584M684 586L684 586M684 460L684 460M684 463L684 463M684 488L684 488M684 462L686 462L684 462M684 564L684 564M684 519L684 519M684 517L685 518L684 517M684 581L685 580L684 581M684 584L689 581L690 582L688 584L684 584M685 573L684 574L685 573M685 516L685 516M685 574L685 574M685 573L686 574L685 573M685 520L685 520M686 564L686 564M686 557L686 557M686 580L686 580M686 515L686 515M686 462L686 462M687 464L687 464M687 569L687 569M687 461L687 461M687 464L687 464M687 574L687 574M687 514L687 514M687 463L687 463M687 519L687 519M687 562L687 562M687 566L687 566M687 462L687 462M687 518L688 519L687 518M688 567L688 567M688 553L688 553M688 459L688 459M688 556L688 556M688 461L688 461M688 563L688 563M688 558L688 558M688 552L688 552M689 514L689 514M689 565L689 565M689 518L689 518M689 566L689 566M689 557L689 557M689 558L689 558M689 565L689 565M689 580L690 579L689 580M690 565L690 565M690 565L690 565M690 553L690 553M690 565L690 565M690 574L691 573L690 574M690 518L690 518M690 565L691 564L690 565M690 553L691 552L690 553M690 460L690 460M691 584L691 584M691 579L691 579M691 561L691 561M691 552L691 552M691 556L692 555L691 556M691 513L691 513M691 566L691 566M692 579L692 579M692 555L692 555M692 516L692 516M692 558L692 558M692 587L692 587M692 581L692 581M693 557L693 557M693 514L693 514M693 585L693 585M693 555L693 555M695 577L696 578L695 577M695 576L696 577L695 576M696 563L696 563M696 532L696 532M697 569L697 569M697 565L697 565M697 577L698 576L697 577M699 560L699 560M699 560L699 560M699 560L699 560M699 561L700 560L699 561M700 560L700 560M700 567L701 566L700 567M700 557L700 557M701 472L701 472M701 471L702 472L701 471M701 570L701 570M702 564L702 564M703 568L703 568M704 573L704 573M705 566L705 566M705 571L705 571M705 566L705 566M705 561L707 561L705 561M706 566L706 566M707 560L707 560M707 512L707 512M707 552L708 553L707 552M707 475L707 475M707 572L707 572M708 474L708 476L708 474M708 560L708 560M711 451L709 451L711 451M711 559L711 559M711 558L711 558M712 562L712 562M712 559L713 558L712 559M712 555L712 555M712 564L712 564M713 556L713 556M715 559L715 559M715 556L715 556M715 522L716 521L715 522M716 558L716 558M718 442L718 442M719 442L718 441L719 442M719 443L720 442L719 443M721 442L720 443L721 442M723 303L723 303M724 302L724 302M724 302L725 303L724 302M729 453L729 453M729 436L730 435L729 436M730 452L730 452M730 449L730 449M730 449L730 449M730 432L730 432M731 427L731 427M731 450L730 451L731 450M731 431L731 431M731 432L731 432M731 423L732 422L731 423M731 434L731 434M731 434L731 434M732 423L732 423M733 432L733 432M733 427L733 427M733 429L733 429M734 451L734 451M734 426L733 427L734 426M734 424L734 424M735 424L735 424M735 423L735 423M735 421L735 421M735 337L735 337M736 420L736 420M736 461L736 461M736 420L736 420M737 317L737 317M738 425L738 425M739 315L738 314L739 315M739 464L735 457L734 450L740 440L745 435L747 435L749 437L749 442L745 454L741 459L741 465L739 464M739 314L739 314M739 315L739 315M740 313L740 313M740 288L740 288M740 311L740 311M741 310L741 310M741 311L741 311M742 330L742 330M742 411L742 411M742 415L742 415M742 411L743 410L742 411M743 411L744 410L743 411M745 375L750 378L749 379L743 375L745 375M745 368L745 368M745 458L745 458M746 463L746 463M747 464L747 464M747 378L747 378M747 400L747 400M748 404L748 404M748 380L746 379L748 380M748 379L750 380L748 379M748 391L748 391M748 403L748 403M748 404L749 403L748 404M749 406L749 406M749 391L748 392L749 391M749 380L749 380M749 406L749 406M749 433L749 433M749 439L749 439M749 391L749 391M749 381L750 380L749 381M749 389L749 389M750 400L750 400M750 394L750 394M750 392L750 392M750 390L750 390M750 386L750 386M750 392L750 392M750 392L750 392M751 392L751 392M751 392L751 392M751 390L751 390M751 389L752 390L751 389M751 390L751 390M751 397L751 397M751 395L750 394L751 395M751 395L751 395M751 392L752 393L751 392M752 393L752 393M752 393L752 393M752 395L751 394L752 395M752 393L753 392L753 394L752 393M753 302L753 302M753 392L753 392M753 388L753 388M754 388L754 388M754 302L754 302M754 301L754 301M754 386L754 386M755 302L756 301L755 302M756 391L756 391M756 304L755 303L756 304M756 385L756 385M756 385L756 385M758 298L757 299L758 298M758 299L758 299M759 304L759 304M760 431L762 431L760 431M762 430L762 430M763 429L764 430L763 429M763 432L763 432M763 431L763 431M763 432L763 432M763 296L763 296M770 429L769 430L770 429" id="海洋"/><path class="leaflet-interactive" stroke="#747569" stroke-opacity="0.6" stroke-width="1" stroke-linecap="round" stroke-linejoin="round" fill="none" d="M490 333L481 330L471 330L463 332L460 337L452 337L445 341L436 340L435 337L431 337L431 339L429 339L427 342L415 340L415 342L413 344L412 343L411 348L409 350L408 349L404 351M554 368L552 368L552 370L549 373L547 373L546 376L543 374L542 377L540 375L537 376L535 374L536 371L535 372L533 370L535 370L533 370L530 367L524 369L519 368L517 366L510 366L505 363L499 363L495 361L489 353L491 353L491 345L489 345L488 342L491 336L487 334L490 333M512 304L505 305L503 307L497 307L496 309L493 310L494 312L496 312L496 317L498 317L503 324L501 324L498 327L498 329L501 330L499 334L493 332L491 334L490 333M587 358L586 359L585 357L583 357L579 353L579 351L580 350L589 353L589 351L591 351L588 348L588 346L592 342L591 341L595 339L594 336L596 336L597 334L595 328L592 325L594 323L588 317L587 318L583 316L574 309L574 311L572 311L564 303L559 304L557 306L552 302L548 302L549 307L546 310L546 312L544 311L542 313L538 310L529 311L527 306L523 307L523 305L518 305L517 302L512 304M544 264L540 267L542 270L540 274L535 276L532 275L524 282L522 286L516 287L514 297L511 301L512 304M607 320L600 316L600 310L604 308L607 303L605 301L606 300L603 299L597 303L593 301L587 303L589 305L587 307L580 304L579 300L569 295L575 287L574 284L566 284L566 286L565 285L562 287L562 285L559 287L559 284L556 282L554 278L555 276L550 263M566 399L564 385L561 380L564 379L560 375L558 369L554 368M587 358L586 363L582 361L583 366L577 368L575 366L574 367L572 363L571 366L564 363L560 353L556 352L554 353L554 355L552 355L552 357L555 360L552 363L553 364L551 364L554 368M558 409L558 407L562 409L562 401L564 403L564 399L566 399M615 413L614 410L610 412L608 410L608 404L604 404L604 407L600 409L601 412L596 417L597 424L594 427L594 425L587 428L587 426L585 426L585 422L579 414L580 413L578 411L576 413L573 410L573 405L570 403L568 405L568 409L566 407L566 399M617 364L616 367L610 367L607 364L608 361L606 357L599 356L596 351L590 355L593 358L588 363L587 358M634 316L631 313L625 311L629 304L627 300L623 301L623 303L622 302L620 306L620 314L618 317L607 320M607 320L609 320L616 327L615 328L617 332L617 337L619 337L619 339L621 339L624 342L624 338L629 335L629 333L625 331L625 325L627 323L631 323M615 413L615 415L611 417L607 417L604 415L602 419L603 424L609 422L610 423L607 432L610 435L612 435L609 440M609 440L609 442L613 442L615 446L620 445L622 447L621 451L620 450L617 453M649 428L648 431L645 430L644 431L646 431L646 433L643 432L642 435L638 433L639 434L635 436L632 435L631 432L621 440L614 437L610 441L609 440M624 406L622 404L618 406L618 408L619 407L623 409L624 411L622 413L615 413M631 323L631 325L638 329L639 328L642 331L642 340L640 342L635 341L635 345L625 343L626 346L624 348L627 351L625 351L626 358L620 358L619 361L621 362L618 365L617 364M641 371L635 371L634 369L632 369L633 368L631 369L629 367L630 366L623 367L621 365L618 366L617 364M647 406L646 409L644 409L640 401L636 401L634 399L632 399L632 403L629 402L627 406L625 406L625 404L624 406M624 406L623 402L619 402L619 400L615 396L619 392L617 390L621 388L623 390L626 389L626 391L629 392L632 389L632 385L637 384L637 380L641 377L639 373L641 371M631 323L631 319L634 316M662 300L662 298L659 301L656 301L654 299L655 300L653 302L652 301L653 302L646 309L646 314L644 314L642 318L634 316M641 371L650 376M650 376L655 381L655 383L649 387L640 387L640 389L642 390L640 394L642 394L645 397L644 398L646 397L647 400M647 400L647 406M685 401L683 401L682 394L678 397L677 394L672 397L668 393L664 393L662 391L658 391L658 395L651 394L651 396L650 395L647 400M649 428L649 426L647 426L649 418L644 419L644 417L646 417L645 416L649 414L647 406M669 440L668 439L665 441L665 437L661 437L665 430L663 430L662 425L658 425L655 429L653 427L651 429L649 428M661 361L659 363L657 361L649 361L651 365L652 364L655 367L651 367L649 369L650 376M651 468L651 469M651 468L655 464L656 465L656 463L659 462L659 460L662 457L664 457L664 451L670 443L669 440M652 480L653 480M654 480L656 479M656 348L655 345L658 338L656 324L660 318L657 315L657 313L660 310L661 305L663 303L662 300M656 348L661 361M656 348L666 346L669 343L670 344L670 342L676 342L682 338L683 331M657 479L658 478M696 379L694 377L691 378L690 375L685 376L683 372L684 371L682 369L680 371L678 369L671 370L667 368L661 361M661 362L661 362M686 286L686 288L676 290L676 292L673 290L668 298L665 297L665 299L662 300M669 440L671 436L675 436L675 438L677 438L678 435L676 435L678 433L682 435L685 433M697 333L694 332L693 334L683 331M683 331L681 327L683 327L683 325L684 326L683 323L686 320L686 316L684 312L682 312L682 308L684 306L683 304L688 303L690 299L689 296L685 294L685 292L686 293L686 291L689 290L686 286M703 394L701 395L697 393L697 395L695 395L692 398L688 398L685 401M685 433L685 429L687 427L685 427L686 424L684 422L684 417L682 415L682 413L687 408L687 404L685 401M685 433L685 435L691 435L691 437L689 437L687 441L689 442L696 439L700 441L699 440L701 438M727 280L720 279L720 271L719 272L717 270L718 269L716 265L710 267L706 273L705 272L702 275L700 273L696 275L696 277L692 277L693 273L689 271L687 277L684 278L686 286M703 348L703 350L706 351L707 354L704 357L700 353L698 355L699 358L697 358L696 361L692 363L695 366L695 368L701 368L701 374L698 375L696 379M703 394L700 388L700 384L702 382L696 379M717 311L712 316L708 316L705 319L704 318L703 321L701 321L701 323L696 328L697 333M703 348L697 348L697 346L695 346L695 344L694 345L692 343L700 335L702 335L702 333L696 337L697 333M701 438L700 435L707 424L706 421L710 419L711 416L709 414L712 413L712 411L715 412L721 408M711 450L708 441L706 441L704 439L705 438L701 438M719 398L719 396L715 396L712 393L710 393L711 394L708 396L707 395L709 393L707 391L703 394M704 348L703 348M728 344L724 344L724 346L721 347L720 350L717 347L715 349L712 348L712 350L708 344L705 345L704 348M731 381L730 382L728 380L724 380L723 379L725 377L723 377L723 375L722 376L720 374L722 372L721 371L723 371L722 368L726 368L727 365L724 364L724 366L720 366L720 364L717 361L719 357L715 357L716 356L713 353L704 348M713 291L711 289L714 286L710 286L706 282L704 284L705 285L699 288L701 290L697 294L697 296L700 299L704 299L706 297L708 298M715 308L712 309L707 306L709 302L708 298M709 297L708 298M709 297L711 297L711 293M711 293L708 294L709 297M711 450L712 451M713 291L711 293M712 452L713 452M713 291L716 294L714 294L714 296L718 302M719 398L725 392L724 391L729 388L727 386L730 385L731 381M719 398L718 401L721 404L721 408M737 418L736 415L732 417L730 413L727 416L724 415L724 408L721 408M727 280L729 278L729 268L734 273L734 275L740 269L741 270L744 267L748 267L750 264L758 264L761 261L763 261L763 257M732 294L732 291L729 288L727 288L727 286L724 285L727 280M741 382L738 385L731 381M739 419L740 419M740 310L742 310M749 377L744 374L743 380L741 382M744 386L741 382M745 386L746 386M761 216L761 218L760 217L758 219L753 212L754 209L768 197L770 203L772 191L776 189L775 181L782 166L776 158L773 160L773 162L758 163L755 154L756 151L752 147L749 150L747 150L747 148L744 146L748 140L746 136M746 386L747 385M748 385L749 385M750 384L751 384M753 384L754 384M755 383L756 383M825 256L820 256L816 250L814 252L814 250L811 252L810 251L808 255L806 255L802 249L801 244L798 247L799 248L796 249L793 243L790 244L791 239L789 237L781 237L779 233L770 234L766 230L766 224L759 225M759 225L758 221L763 219L763 217L762 218L761 216M759 225L756 227L756 231L753 228L750 229L748 227L747 230L750 232L752 236L750 239L752 247L757 246L759 244L762 253L762 255L760 255L763 257M761 216L761 216M761 216L761 216M761 216L761 216M763 257L764 256L769 261L769 263L772 260L773 261L775 269L777 271L778 270L776 272L776 276L778 276L777 277L780 280L778 284L780 284M620 340L621 339L620 340M649 422L650 421L649 422M677 394L677 394" id="省界"/><path class="leaflet-interactive" stroke="#3388ff" stroke-opacity="0" stroke-width="3" stroke-linecap="round" stroke-linejoin="round" fill="#eee" fill-opacity="0.5" fill-rule="evenodd" d="M712 287L714 287L709 286L707 282L702 287L699 288L701 290L700 292L697 293L697 296L700 299L704 299L706 297L707 298L709 296L708 293L713 292L711 290L712 287z" id="北京市"/><path class="leaflet-interactive" stroke="#3388ff" stroke-opacity="0" stroke-width="3" stroke-linecap="round" stroke-linejoin="round" fill="#eee" fill-opacity="0.5" fill-rule="evenodd" d="M716 300L717 299L714 296L714 294L716 294L713 291L711 293L711 297L708 298L709 302L707 306L715 308L717 304L716 303L718 301L715 300zM716 300L716 300z" id="天津市"/><path class="leaflet-interactive" stroke="#3388ff" stroke-opacity="0" stroke-width="3" stroke-linecap="round" stroke-linejoin="round" fill="#eee" fill-opacity="0.5" fill-rule="evenodd" d="M713 287L711 289L716 294L714 294L714 296L721 305L728 299L728 296L732 294L730 288L728 288L725 285L725 283L728 280L720 279L720 271L719 272L717 270L718 269L716 265L710 267L707 273L701 273L696 275L696 277L693 276L693 273L691 271L689 271L687 277L684 278L684 282L688 290L690 290L685 293L689 295L689 301L685 303L682 308L682 312L685 314L686 317L683 323L684 324L681 328L684 331L693 334L695 332L696 333L696 329L700 325L701 321L704 319L705 320L708 316L712 316L717 311L714 308L710 308L707 306L709 302L707 297L705 299L699 299L697 297L697 294L701 290L699 288L702 287L707 282L709 286L713 287zM711 293L708 294L709 297L711 297L711 293zM716 300L715 300zM724 302L724 303z" id="河北省"/><path class="leaflet-interactive" stroke="#3388ff" stroke-opacity="0" stroke-width="3" stroke-linecap="round" stroke-linejoin="round" fill="#eee" fill-opacity="0.5" fill-rule="evenodd" d="M656 348L666 346L669 343L670 344L670 342L676 342L682 338L683 331L681 327L684 325L683 324L686 319L685 314L682 311L684 307L683 304L688 303L690 299L689 296L685 293L690 290L688 290L687 286L682 290L679 289L676 290L675 292L673 290L668 298L666 297L663 300L660 310L657 313L657 315L660 318L656 324L658 336L655 345L656 348z" id="山西省"/><path class="leaflet-interactive" stroke="#3388ff" stroke-opacity="0" stroke-width="3" stroke-linecap="round" stroke-linejoin="round" fill="#eee" fill-opacity="0.5" fill-rule="evenodd" d="M550 263L555 276L553 278L559 284L559 287L563 287L565 285L566 286L566 284L573 284L575 287L574 291L569 295L579 300L579 304L582 304L585 307L587 307L589 305L587 303L592 301L596 303L600 300L605 299L607 303L604 308L600 310L600 316L608 320L617 317L620 314L620 306L622 302L623 303L623 301L626 300L629 303L629 305L625 311L628 313L632 313L632 315L637 316L637 318L642 318L643 315L646 314L645 311L653 302L652 301L653 302L655 300L654 299L656 301L658 301L661 298L663 300L666 297L667 298L673 290L675 292L679 289L682 290L686 288L684 278L687 277L689 271L691 271L693 273L692 276L695 277L700 273L702 275L705 272L706 273L709 271L709 267L713 267L716 265L718 269L717 270L719 272L720 271L720 279L727 280L729 278L729 272L727 270L729 268L734 273L734 275L740 269L741 270L744 267L748 267L754 263L757 264L763 260L763 258L760 255L762 255L762 253L759 244L752 248L750 241L752 237L747 230L748 227L750 229L753 228L756 231L756 227L759 225L758 221L763 219L762 216L760 216L761 217L759 219L757 218L757 216L753 212L754 209L762 204L768 197L770 203L772 191L776 189L775 181L782 166L776 158L773 160L773 162L758 162L755 155L756 150L754 150L751 147L748 150L744 146L748 140L747 137L742 136L734 144L734 146L739 146L740 153L733 160L734 161L729 168L730 169L727 175L729 175L728 178L715 185L707 181L700 197L700 201L698 202L698 205L701 208L704 205L713 208L717 203L722 204L732 214L733 219L731 221L726 220L724 218L716 221L714 220L712 223L708 223L703 229L704 230L699 234L691 234L686 240L682 242L676 241L673 238L668 238L665 246L669 254L661 258L656 264L644 268L633 267L624 270L613 277L610 276L609 274L598 273L594 270L592 271L585 266L564 266L551 264z" id="内蒙古自治区"/><path class="leaflet-interactive" stroke="#3388ff" stroke-opacity="0" stroke-width="3" stroke-linecap="round" stroke-linejoin="round" fill="#eee" fill-opacity="0.5" fill-rule="evenodd" d="M762 296L766 296L773 288L774 289L780 284L780 280L777 277L778 276L776 276L776 272L778 270L777 271L775 269L775 265L772 260L769 263L769 260L764 256L762 261L759 262L760 263L753 263L753 265L751 264L748 267L744 267L734 275L734 273L729 268L727 270L729 272L729 277L725 282L725 285L728 288L730 288L732 294L738 291L738 289L743 284L748 284L752 288L749 291L750 292L745 296L746 297L743 299L747 301L747 303L746 302L746 304L745 303L743 307L748 304L749 305L748 304L754 299L762 296zM755 301L755 301zM752 302L752 302zM755 301L756 302L755 301zM756 304L755 303L756 304zM758 298L757 299L758 298zM754 301L754 302zM740 288L740 288zM758 299L758 299zM759 304L759 304zM763 296L764 296z" id="辽宁省"/><path class="leaflet-interactive" stroke="#3388ff" stroke-opacity="0" stroke-width="3" stroke-linecap="round" stroke-linejoin="round" fill="#eee" fill-opacity="0.5" fill-rule="evenodd" d="M811 268L813 261L815 261L819 267L819 265L817 264L821 263L824 260L825 257L817 254L817 250L815 252L813 250L809 252L808 255L806 255L802 249L801 244L798 247L799 248L796 249L793 243L790 244L791 239L789 237L781 237L779 233L775 235L773 233L770 234L766 230L766 226L764 224L760 224L756 227L756 231L753 228L750 229L748 227L747 230L750 232L752 237L750 239L752 247L754 248L759 244L762 253L762 255L760 255L762 257L764 256L767 259L768 258L768 261L770 263L772 260L773 261L775 269L777 271L778 270L776 272L776 276L778 276L777 277L780 280L780 284L783 283L789 274L793 278L800 279L798 272L806 272L809 267L811 268z" id="吉林省"/><path class="leaflet-interactive" stroke="#3388ff" stroke-opacity="0" stroke-width="3" stroke-linecap="round" stroke-linejoin="round" fill="#eee" fill-opacity="0.5" fill-rule="evenodd" d="M762 225L766 225L766 229L770 234L773 233L775 235L779 233L781 237L789 237L791 239L790 244L793 243L797 249L799 249L798 246L801 244L802 249L806 255L808 255L808 253L813 250L815 252L817 250L817 254L823 257L824 250L822 241L829 236L838 239L839 238L839 234L846 223L845 222L848 214L847 213L852 208L852 200L855 198L839 202L836 205L835 204L836 205L834 207L823 208L819 203L821 201L818 196L820 193L816 193L809 186L806 187L803 184L797 185L795 183L795 176L793 176L792 169L789 166L790 163L788 163L789 160L787 159L788 158L785 154L786 153L782 145L783 144L779 142L780 141L778 139L772 139L762 133L747 135L746 136L748 140L743 146L746 147L747 150L749 150L752 147L756 151L755 154L758 163L773 162L775 158L782 165L780 173L775 180L776 188L772 190L770 203L768 197L757 208L754 209L753 212L758 219L760 217L761 218L761 216L762 218L763 217L763 219L758 220L759 224L762 225z" id="黑龙江省"/><path class="leaflet-interactive" stroke="#3388ff" stroke-opacity="0" stroke-width="3" stroke-linecap="round" stroke-linejoin="round" fill="#eee" fill-opacity="0.5" fill-rule="evenodd" d="M741 382L745 386L750 383L745 378L743 378L741 382zM749 377L744 374L743 375L746 378L750 378zM748 380L746 378L748 380zM748 379L751 380L748 379zM747 378L746 378zM749 381L749 380zM749 380L749 380z" id="上海市"/><path class="leaflet-interactive" stroke="#3388ff" stroke-opacity="0" stroke-width="3" stroke-linecap="round" stroke-linejoin="round" fill="#eee" fill-opacity="0.5" fill-rule="evenodd" d="M712 349L711 350L708 345L704 347L711 353L714 353L716 357L718 357L717 362L719 362L721 366L725 364L727 366L726 369L722 367L723 370L720 374L722 376L723 375L723 377L725 377L723 380L729 380L728 381L732 381L738 385L745 377L743 376L744 374L749 377L749 374L741 366L737 353L729 347L727 343L724 344L721 350L719 350L717 347L715 349L712 349z" id="江苏省"/><path class="leaflet-interactive" stroke="#3388ff" stroke-opacity="0" stroke-width="3" stroke-linecap="round" stroke-linejoin="round" fill="#eee" fill-opacity="0.5" fill-rule="evenodd" d="M721 408L724 409L724 415L727 416L731 413L732 416L736 415L738 418L739 414L743 412L742 409L743 410L747 408L747 400L750 399L748 395L751 393L747 392L742 387L744 385L741 382L738 385L732 381L730 385L727 386L729 388L726 389L724 391L725 392L718 399L718 401L721 404L721 407zM751 392L752 393L752 391L750 390L751 392zM751 390L751 391zM752 395L752 395zM753 385L753 385zM751 389L752 390L751 389zM752 390L752 389zM750 400L750 399zM753 393L753 393zM753 388L753 388zM748 403L749 403zM752 393L752 394zM748 400L748 400zM743 414L743 414zM749 385L750 386L749 385zM749 406L749 406zM751 395L750 394L751 395zM753 392L753 393zM754 386L754 386zM749 406L749 406zM750 390L750 390zM753 392L753 392zM748 392L749 391L748 392zM742 415L742 415zM749 399L750 400L749 399zM750 394L750 395zM749 391L749 391zM749 389L749 389zM751 392L751 392zM752 395L752 394zM743 412L743 412zM756 391L756 391zM752 389L752 389zM752 393L752 393zM756 385L756 385zM742 411L743 410L742 411zM743 411L744 410L743 411zM753 392L753 392zM756 385L756 385zM751 392L752 392zM750 392L750 392zM742 411L742 410zM753 393L753 393zM751 392L751 392z" id="浙江省"/><path class="leaflet-interactive" stroke="#3388ff" stroke-opacity="0" stroke-width="3" stroke-linecap="round" stroke-linejoin="round" fill="#eee" fill-opacity="0.5" fill-rule="evenodd" d="M706 354L707 355L703 357L699 353L699 358L697 358L696 361L692 363L695 366L695 368L701 368L701 375L699 375L696 378L700 382L702 382L699 386L703 394L706 393L706 391L709 393L707 395L708 396L711 393L713 393L714 396L721 397L725 392L724 391L729 388L727 386L729 386L731 382L728 381L729 380L723 380L725 378L721 374L723 370L722 367L726 369L727 366L725 364L721 366L719 362L717 362L719 357L715 357L716 355L714 353L710 353L705 348L703 349L704 351L706 351L706 354zM724 378L725 378zM707 395L707 395zM697 369L697 369z" id="安徽省"/><path class="leaflet-interactive" stroke="#3388ff" stroke-opacity="0" stroke-width="3" stroke-linecap="round" stroke-linejoin="round" fill="#eee" fill-opacity="0.5" fill-rule="evenodd" d="M726 438L725 435L727 437L726 436L729 435L727 435L727 433L733 433L729 431L731 431L731 427L733 425L731 423L733 423L733 421L734 422L732 424L735 423L734 422L737 419L737 417L732 417L730 413L728 416L725 415L723 407L720 408L720 410L716 412L713 411L710 414L711 416L706 421L707 424L705 428L702 430L700 438L704 438L706 440L705 441L708 440L709 447L712 450L719 444L718 441L722 442L724 440L723 439L726 438zM721 442L720 443L721 442zM729 436L730 435L729 436zM730 432L730 432zM733 427L733 426zM719 443L719 442zM733 422L733 422zM719 442L718 441L719 442zM733 427L733 427zM731 427L730 427zM734 424L734 424zM731 432L731 431zM732 423L732 423zM735 423L735 423zM736 420L736 420zM735 421L735 421zM731 423L732 422L731 423z" id="福建省"/><path class="leaflet-interactive" stroke="#3388ff" stroke-opacity="0" stroke-width="3" stroke-linecap="round" stroke-linejoin="round" fill="#eee" fill-opacity="0.5" fill-rule="evenodd" d="M719 398L718 396L714 396L713 393L711 393L708 396L707 395L709 393L707 391L701 395L697 393L697 395L695 395L692 398L688 398L685 401L687 403L687 408L683 412L682 416L684 416L683 419L686 424L685 426L687 426L685 434L691 435L687 440L689 442L696 439L699 441L700 440L702 431L707 424L706 421L711 417L710 414L713 411L716 412L721 409L721 405L718 401L719 398z" id="江西省"/><path class="leaflet-interactive" stroke="#3388ff" stroke-opacity="0" stroke-width="3" stroke-linecap="round" stroke-linejoin="round" fill="#eee" fill-opacity="0.5" fill-rule="evenodd" d="M704 348L705 345L708 344L711 349L715 349L717 347L720 350L722 347L724 347L723 346L725 344L729 343L729 341L736 334L736 332L736 334L739 333L740 330L741 331L740 328L741 329L749 325L752 326L755 320L745 320L745 318L739 316L735 317L736 318L732 321L732 323L728 323L725 319L728 318L728 316L725 313L722 314L717 311L712 316L708 316L705 319L704 318L704 320L703 319L704 320L701 321L701 323L696 328L696 337L702 333L702 335L700 335L692 343L699 349L704 348zM739 315L740 315zM739 314L739 314zM742 330L741 330zM740 313L740 312zM741 311L741 310zM735 337L735 336zM739 315L738 314zM740 311L740 311zM746 318L746 318zM746 318L746 318zM746 318L746 318zM697 335L697 335z" id="山东省"/><path class="leaflet-interactive" stroke="#3388ff" stroke-opacity="0" stroke-width="3" stroke-linecap="round" stroke-linejoin="round" fill="#eee" fill-opacity="0.5" fill-rule="evenodd" d="M675 370L678 369L681 371L683 369L685 376L690 376L691 378L694 377L696 379L697 376L701 375L701 369L697 369L695 365L692 364L696 362L699 353L703 357L707 355L703 348L697 348L697 346L695 346L694 344L693 345L692 342L702 334L697 335L696 337L697 334L695 332L693 334L684 331L682 338L677 342L670 341L669 344L656 349L663 365L670 370L674 370zM683 370L683 371z" id="河南省"/><path class="leaflet-interactive" stroke="#3388ff" stroke-opacity="0" stroke-width="3" stroke-linecap="round" stroke-linejoin="round" fill="#eee" fill-opacity="0.5" fill-rule="evenodd" d="M662 362L649 362L652 365L654 365L653 368L650 367L649 371L650 376L654 379L655 383L648 387L640 387L642 390L640 394L642 394L645 397L644 398L646 397L647 400L648 397L650 395L651 396L651 394L658 395L658 391L668 393L671 396L675 396L677 394L678 397L682 393L682 399L684 401L687 398L693 398L692 397L698 393L701 395L702 394L702 390L700 388L700 384L702 382L698 381L694 377L691 378L690 375L685 376L683 370L670 370L667 367L666 368L662 362zM646 387L646 387zM662 362L662 362zM675 370L675 370zM676 394L677 394z" id="湖北省"/><path class="leaflet-interactive" stroke="#3388ff" stroke-opacity="0" stroke-width="3" stroke-linecap="round" stroke-linejoin="round" fill="#eee" fill-opacity="0.5" fill-rule="evenodd" d="M669 440L671 436L675 436L675 438L677 438L676 435L678 433L682 435L685 432L685 428L687 427L685 427L686 424L684 422L684 416L682 416L682 414L683 411L686 410L685 409L687 407L687 403L684 400L683 401L682 394L678 397L677 394L675 396L671 396L668 393L657 391L657 395L649 395L647 399L647 410L649 414L647 416L646 415L646 417L643 419L648 418L650 420L650 422L648 422L647 425L652 430L652 427L656 429L658 426L664 426L663 429L665 429L661 438L665 436L665 440L669 439zM649 422L649 422z" id="湖南省"/><path class="leaflet-interactive" stroke="#3388ff" stroke-opacity="0" stroke-width="3" stroke-linecap="round" stroke-linejoin="round" fill="#eee" fill-opacity="0.5" fill-rule="evenodd" d="M682 462L683 458L689 460L690 457L692 459L695 456L697 458L699 456L705 456L708 453L708 451L711 450L708 440L705 441L706 440L704 438L700 438L700 441L698 441L697 439L689 442L687 440L691 436L690 434L685 435L685 433L679 433L677 435L676 434L678 436L676 438L674 436L670 437L671 438L669 440L669 446L664 451L665 454L662 458L659 459L658 462L656 462L655 465L654 464L652 467L651 466L652 469L650 473L652 479L656 479L658 477L655 474L657 470L669 467L671 465L679 465L682 462zM710 451L710 451zM676 466L675 467L676 466zM673 467L674 467zM687 463L687 463zM657 471L658 472L658 470L657 471zM673 467L673 466zM657 472L655 472L658 472zM683 464L683 464zM683 464L683 464zM678 465L678 465zM684 460L684 460zM687 464L687 464zM687 464L686 464zM708 474L709 475L707 476L709 476L708 474zM677 465L677 465zM656 475L656 475zM658 473L658 473zM658 478L658 478zM701 471L702 472L701 471zM701 472L701 472zM700 457L700 457zM700 457L700 457z" id="广东省"/><path class="leaflet-interactive" stroke="#3388ff" stroke-opacity="0" stroke-width="3" stroke-linecap="round" stroke-linejoin="round" fill="#eee" fill-opacity="0.5" fill-rule="evenodd" d="M649 428L648 431L645 430L644 431L646 431L644 433L643 432L642 435L641 433L639 433L638 436L636 436L630 432L628 436L621 440L614 437L611 441L609 441L616 446L621 445L623 447L622 450L620 450L617 453L620 456L625 455L627 457L625 461L627 462L626 464L637 468L642 466L645 467L645 469L647 469L650 467L651 468L651 466L652 467L655 464L656 465L656 463L659 462L659 460L665 455L665 449L669 447L668 445L670 443L668 439L665 441L664 436L662 438L661 437L665 430L663 430L663 426L658 426L655 429L653 427L652 430L649 428zM614 438L614 438zM646 472L646 472z" id="广西壮族自治区"/><path class="leaflet-interactive" stroke="#3388ff" stroke-opacity="0" stroke-width="3" stroke-linecap="round" stroke-linejoin="round" fill="#eee" fill-opacity="0.5" fill-rule="evenodd" d="M654 481L647 482L642 487L642 493L644 495L650 497L658 491L658 488L662 484L659 480L654 480zM671 614L671 614zM679 580L680 579zM669 614L669 614zM665 506L666 505L665 506zM715 522L715 521zM671 613L671 613zM667 513L668 513zM666 513L667 513zM684 584L688 584L690 582L689 581L685 584zM685 573L686 574L685 573zM685 574L685 574zM669 512L669 512zM667 511L668 510L667 511zM671 574L671 574zM684 586L684 586zM687 574L687 574zM671 506L672 507L671 506zM691 561L691 561zM700 567L700 566zM690 565L691 564zM683 584L684 583zM649 586L651 584L653 585L649 585zM704 573L704 573zM673 515L674 514L673 515zM674 574L674 574zM689 557L690 557zM673 512L673 512zM705 561L706 561zM672 507L672 507zM665 511L666 511zM697 565L698 565zM691 579L691 579zM689 580L690 579zM695 577L696 578L695 577zM684 581L685 580zM697 569L697 569zM705 571L705 571zM682 573L683 572L682 573zM691 556L692 555L691 556zM690 553L690 552zM693 557L693 557zM666 511L666 511zM685 573L685 574zM653 582L653 581zM707 552L708 553L707 552zM667 510L667 510zM673 511L674 510L673 511zM667 514L668 514zM684 564L684 563zM692 579L692 579zM706 566L706 567zM696 563L696 563zM708 560L708 560zM691 513L691 513zM701 570L701 570zM683 571L683 571zM691 584L691 584zM689 558L690 558zM716 558L716 558zM687 562L687 562zM691 552L691 552zM707 560L707 560zM657 580L658 579L657 580zM665 576L665 576zM695 576L696 576zM679 580L679 580zM686 557L686 557zM712 562L712 561zM687 514L687 514zM658 580L658 580zM697 577L698 576zM666 584L666 584zM666 575L667 575zM657 582L657 582zM672 573L672 573zM705 566L705 566zM669 580L669 580zM689 518L689 518zM693 555L694 555zM686 515L686 515zM702 564L702 563zM712 559L712 558zM692 587L692 587zM676 573L676 573zM667 583L667 583zM671 574L671 574zM673 598L674 598zM690 574L690 573zM692 581L692 580zM677 577L677 577zM682 589L682 589zM707 512L707 512zM712 564L712 563zM677 485L677 485zM689 514L689 514zM684 488L684 488zM674 604L675 604zM666 581L666 581zM671 573L672 573zM676 582L677 582zM674 600L674 600zM673 600L673 599zM696 532L696 532zM682 562L682 562zM684 519L684 519zM677 605L677 605zM674 604L674 604zM672 600L672 600zM671 508L671 508zM671 517L671 517zM674 602L674 602zM673 599L673 599zM679 594L679 594zM703 568L703 568zM693 585L693 584zM666 582L666 582zM685 516L685 516zM693 514L693 515zM707 572L707 572zM674 511L675 511zM663 482L663 482zM699 561L700 561zM711 558L711 559zM675 512L675 512zM700 560L700 560zM673 568L674 568zM690 518L690 518zM712 555L712 556zM715 556L715 556zM687 569L687 569zM691 566L691 567zM674 597L674 597z" id="海南省"/><path class="leaflet-interactive" stroke="#3388ff" stroke-opacity="0" stroke-width="3" stroke-linecap="round" stroke-linejoin="round" fill="#eee" fill-opacity="0.5" fill-rule="evenodd" d="M624 406L625 403L626 406L630 402L631 403L633 399L635 399L636 402L640 400L640 404L642 404L642 406L645 409L648 405L648 401L646 397L644 397L644 395L640 394L642 390L640 388L642 388L643 386L646 387L654 384L655 381L653 378L651 376L647 376L645 373L641 371L641 373L639 373L641 377L637 381L638 380L636 385L632 385L633 386L629 392L627 392L626 389L623 390L619 388L619 390L617 390L619 392L616 398L619 399L619 401L621 401L624 405zM646 386L646 387zM618 391L618 391zM646 387L646 387zM629 392L629 392z" id="重庆市"/><path class="leaflet-interactive" stroke="#3388ff" stroke-opacity="0" stroke-width="3" stroke-linecap="round" stroke-linejoin="round" fill="#eee" fill-opacity="0.5" fill-rule="evenodd" d="M582 418L587 428L596 425L596 417L601 412L601 408L602 409L604 407L603 406L607 404L607 408L609 408L607 410L609 412L615 410L616 413L623 413L623 409L619 407L618 408L618 406L621 403L624 406L623 402L619 402L619 400L615 396L619 393L618 390L617 391L620 388L623 390L626 389L626 391L629 392L633 385L637 384L637 380L641 377L639 373L641 373L641 371L637 371L634 369L633 370L633 368L630 369L629 366L622 367L622 365L620 365L618 367L617 364L616 367L610 367L607 364L608 361L606 357L599 356L596 351L591 354L593 358L588 363L587 358L586 363L582 361L583 366L577 368L575 366L574 367L572 363L571 366L564 363L560 353L554 353L552 357L555 360L552 362L553 363L551 365L559 371L563 379L561 381L564 385L566 406L568 409L568 405L570 403L574 407L573 410L576 413L578 411L582 418zM623 390L623 390zM629 391L629 391zM617 390L617 390z" id="四川省"/><path class="leaflet-interactive" stroke="#3388ff" stroke-opacity="0" stroke-width="3" stroke-linecap="round" stroke-linejoin="round" fill="#eee" fill-opacity="0.5" fill-rule="evenodd" d="M647 406L646 409L644 409L643 406L642 407L642 405L640 404L640 400L636 402L636 400L633 399L632 402L630 402L626 406L625 403L624 406L621 403L618 406L618 408L619 407L623 409L623 412L617 412L614 416L611 417L608 415L606 417L604 415L602 419L603 424L610 423L607 432L610 435L612 435L609 439L611 441L615 437L621 441L623 439L622 438L628 436L630 432L632 433L632 435L637 436L639 434L638 433L642 434L642 432L644 433L646 431L644 431L645 430L648 431L649 426L647 426L647 422L649 422L649 418L644 419L646 417L645 416L649 414L647 406zM649 421L649 421zM649 422L650 422z" id="贵州省"/><path class="leaflet-interactive" stroke="#3388ff" stroke-opacity="0" stroke-width="3" stroke-linecap="round" stroke-linejoin="round" fill="#eee" fill-opacity="0.5" fill-rule="evenodd" d="M615 413L613 409L612 411L609 412L607 410L609 408L607 408L608 405L604 405L604 407L602 409L601 408L600 413L596 417L597 424L594 427L594 425L588 428L581 418L579 414L580 413L578 411L576 413L573 410L574 407L570 403L568 405L568 409L566 407L566 399L564 399L564 403L562 401L561 404L563 407L561 409L559 407L558 408L559 415L562 414L563 417L563 427L561 427L562 429L554 437L555 438L553 442L555 444L553 446L554 447L558 445L564 445L562 447L564 450L563 451L565 454L569 454L566 462L571 463L575 468L579 468L581 466L583 468L582 469L586 471L587 466L585 461L587 459L590 460L593 457L597 460L600 457L604 459L607 456L608 458L612 456L611 455L614 452L617 453L620 450L622 450L623 447L621 445L616 446L613 442L609 442L611 437L611 435L608 432L610 423L608 422L604 424L602 421L604 415L606 417L608 415L612 417L615 414z" id="云南省"/><path class="leaflet-interactive" stroke="#3388ff" stroke-opacity="0" stroke-width="3" stroke-linecap="round" stroke-linejoin="round" fill="#eee" fill-opacity="0.5" fill-rule="evenodd" d="M490 333L481 330L471 330L463 332L460 337L459 336L457 338L454 336L445 341L436 340L435 337L431 337L431 339L429 339L427 342L415 340L415 342L413 344L412 343L411 348L409 350L405 350L401 354L401 358L406 365L405 370L403 370L402 367L399 368L399 372L402 374L402 380L405 383L408 382L413 387L414 386L418 388L422 392L424 388L429 389L441 400L443 398L446 399L445 400L450 405L453 404L455 408L458 407L460 411L462 409L462 411L466 409L469 412L477 412L479 410L483 410L482 415L484 417L491 408L499 410L501 412L503 410L505 414L509 416L510 421L521 420L527 414L532 413L535 411L535 409L538 408L542 408L549 412L552 410L551 409L553 405L558 409L558 407L562 409L562 401L564 403L564 399L566 399L564 390L565 389L563 382L561 380L564 379L560 375L558 369L551 368L552 371L551 370L550 373L546 373L547 376L543 374L542 377L540 375L537 376L535 374L536 371L533 371L534 370L529 367L521 369L516 366L510 366L505 363L499 363L495 361L489 354L491 352L491 345L489 345L488 342L491 336L487 334L490 333z" id="西藏自治区"/><path class="leaflet-interactive" stroke="#3388ff" stroke-opacity="0" stroke-width="3" stroke-linecap="round" stroke-linejoin="round" fill="#eee" fill-opacity="0.5" fill-rule="evenodd" d="M656 348L655 345L658 338L656 324L660 318L657 312L661 308L661 304L663 301L662 298L658 301L654 299L655 300L653 302L652 301L653 302L646 309L646 314L644 314L642 318L638 318L635 315L631 319L631 325L638 329L639 328L642 331L642 341L635 341L635 345L625 343L626 346L624 348L627 351L625 351L626 353L624 355L626 358L620 358L619 361L621 362L619 365L617 365L621 365L623 367L629 366L630 369L633 368L633 370L634 369L637 372L640 371L650 376L649 369L651 367L655 367L652 364L651 365L651 363L649 362L658 361L659 363L661 361L656 348zM661 359L661 359zM622 366L622 366z" id="陕西省"/><path class="leaflet-interactive" stroke="#3388ff" stroke-opacity="0" stroke-width="3" stroke-linecap="round" stroke-linejoin="round" fill="#eee" fill-opacity="0.5" fill-rule="evenodd" d="M625 337L624 342L620 340L621 339L619 339L616 336L616 326L609 320L604 319L602 316L600 316L600 310L604 308L607 303L605 299L600 300L597 303L592 301L589 302L589 305L587 307L580 304L579 300L577 300L571 295L568 295L573 291L575 287L574 284L566 284L566 286L565 285L562 287L562 285L559 287L559 284L556 282L554 278L554 272L550 263L542 265L540 267L542 270L541 273L535 276L532 275L524 282L522 286L516 287L514 297L511 301L512 304L514 302L518 302L518 305L522 305L524 307L527 306L529 310L538 310L542 313L544 311L546 312L546 310L549 307L549 302L558 306L559 303L561 305L563 303L566 304L565 305L572 311L574 312L574 309L577 312L578 311L582 316L590 318L597 334L588 346L588 348L591 351L587 353L580 350L579 351L582 357L587 359L588 358L588 362L591 361L590 360L592 360L593 358L590 354L592 354L595 351L598 353L599 356L606 357L608 361L607 364L610 367L616 367L617 364L620 364L620 358L626 358L625 351L627 351L624 348L626 346L625 343L634 345L636 344L634 342L635 341L641 342L641 336L643 334L642 330L633 326L630 323L626 323L626 327L624 329L625 332L629 334L628 337L626 337zM621 339L622 339zM595 331L596 331zM622 340L622 340zM625 337L625 337z" id="甘肃省"/><path class="leaflet-interactive" stroke="#3388ff" stroke-opacity="0" stroke-width="3" stroke-linecap="round" stroke-linejoin="round" fill="#eee" fill-opacity="0.5" fill-rule="evenodd" d="M595 331L595 327L589 317L588 318L586 316L582 316L580 312L579 313L574 309L574 311L572 311L564 303L562 303L561 305L559 303L557 306L552 302L548 302L549 307L546 310L546 312L544 311L542 313L538 310L529 311L527 306L524 307L522 305L518 305L518 303L515 302L503 307L498 307L493 310L494 312L497 311L496 317L503 323L498 326L498 328L501 329L501 332L499 334L493 332L491 334L487 334L491 336L488 341L488 343L491 346L491 352L489 354L495 361L499 363L502 362L510 366L519 367L521 369L529 367L536 372L535 374L537 376L540 375L542 377L543 374L547 376L546 373L547 374L550 373L551 370L552 371L551 368L553 368L552 363L554 360L552 356L555 352L560 354L563 361L567 365L570 366L572 364L574 366L573 367L576 366L578 368L583 366L582 361L585 361L586 363L587 359L583 357L579 352L581 350L586 353L591 351L588 348L588 346L592 342L591 341L595 339L594 337L597 334L596 331z" id="青海省"/><path class="leaflet-interactive" stroke="#3388ff" stroke-opacity="0" stroke-width="3" stroke-linecap="round" stroke-linejoin="round" fill="#eee" fill-opacity="0.5" fill-rule="evenodd" d="M631 323L631 319L634 316L631 313L625 311L629 304L627 300L623 301L623 303L622 302L620 306L620 314L618 317L607 320L609 320L616 327L615 328L617 332L617 337L619 337L619 339L621 339L624 342L624 337L628 337L629 334L625 331L625 325L627 323L631 323zM621 339L621 340zM622 340L622 340z" id="宁夏回族自治区"/><path class="leaflet-interactive" stroke="#3388ff" stroke-opacity="0" stroke-width="3" stroke-linecap="round" stroke-linejoin="round" fill="#eee" fill-opacity="0.5" fill-rule="evenodd" d="M544 264L540 259L537 250L535 250L536 247L532 247L520 239L510 239L504 237L503 238L501 236L500 237L498 232L501 227L499 224L501 220L500 216L498 216L494 207L488 203L485 204L481 202L481 200L476 196L477 195L474 194L474 189L472 191L467 190L467 194L462 199L460 198L456 202L458 211L456 215L452 217L443 216L436 213L430 231L430 233L433 235L432 237L427 236L426 234L424 236L417 238L416 237L411 240L415 243L415 249L418 256L418 259L415 261L416 262L413 265L414 270L409 274L397 279L396 281L394 281L394 283L387 283L382 290L379 289L377 291L377 287L373 289L370 288L371 290L369 290L366 293L365 292L362 295L363 298L360 299L361 304L362 303L361 306L364 309L365 307L370 309L372 317L371 318L373 320L371 322L367 322L378 327L380 329L379 334L382 336L383 335L391 340L396 339L396 343L398 345L397 347L403 351L411 349L412 344L415 342L415 340L427 342L432 337L434 337L437 340L442 341L454 336L456 338L459 337L464 332L468 332L471 330L481 330L491 334L493 332L499 334L501 330L498 327L503 323L497 317L497 311L494 312L493 309L511 304L516 287L522 286L526 280L532 275L534 275L535 277L537 274L539 274L542 270L540 267L542 265z" id="新疆维吾尔自治区"/><path class="leaflet-interactive" stroke="#3388ff" stroke-opacity="0" stroke-width="3" stroke-linecap="round" stroke-linejoin="round" fill="#eee" fill-opacity="0.5" fill-rule="evenodd" d="M737 460L740 465L741 459L745 454L749 442L749 436L743 436L738 442L736 448L734 449L736 459zM770 429L770 429zM761 431L762 430L761 431zM731 450L730 451zM763 429L763 429zM730 449L729 450L730 449zM730 452L730 452zM730 449L730 449zM750 432L750 432zM745 458L746 458zM746 463L746 463zM750 433L751 433zM729 453L729 453zM736 461L737 461z" id="台湾省"/><path class="leaflet-interactive" stroke="#3388ff" stroke-opacity="0" stroke-width="3" stroke-linecap="round" stroke-linejoin="round" fill="#eee" fill-opacity="0.5" fill-rule="evenodd" d="M686 459L686 461L684 461L685 462L689 460L686 459zM686 462L687 462zM688 460L688 460zM688 460L688 460zM688 460L688 460zM688 461L688 461zM688 460L688 460zM688 461L688 461zM688 461L688 461z" id="香港特别行政区"/><path class="leaflet-interactive" stroke="#3388ff" stroke-opacity="0" stroke-width="3" stroke-linecap="round" stroke-linejoin="round" fill="#eee" fill-opacity="0.5" fill-rule="evenodd" d="M682 463L682 462zM682 462L682 462z" id="澳门特别行政区"/><path class="leaflet-interactive" stroke="#3388ff" stroke-opacity="0" stroke-width="3" stroke-linecap="round" stroke-linejoin="round" fill="#eee" fill-opacity="0.5" fill-rule="evenodd" d="M754 451L756 441L754 451zM743 474L749 466L743 474zM729 498L734 489L729 498zM726 523L726 514L726 523zM723 555L722 557L725 548L724 551zM698 588L703 581L698 588zM672 617L668 618L676 615L673 616zM639 596L640 597L639 589L639 596zM654 553L656 550L656 546L655 552zM652 521L648 513L651 519z" id="100000_JD"/></g></svg>